<svg xmlns="http://www.w3.org/2000/svg" xmlns:xlink="http://www.w3.org/1999/xlink" width="400" zoomAndPan="magnify" viewBox="0 0 300 74.999997" height="100" preserveAspectRatio="xMidYMid meet" version="1.0"><defs><g/><clipPath id="250f00f846"><path d="M 14.671875 13.335938 L 63.257812 13.335938 L 63.257812 61.75 L 14.671875 61.75 Z M 14.671875 13.335938 " clip-rule="nonzero"/></clipPath><clipPath id="d7fdca8063"><path d="M 46.367188 55.777344 C 45.515625 59.597656 41.960938 62.101562 37.890625 61.71875 C 34.25 61.382812 31.214844 58.164062 31.097656 54.441406 C 31.046875 52.40625 30.59375 50.519531 29.34375 48.882812 C 27.640625 46.648438 25.355469 45.511719 22.535156 45.445312 C 18.761719 45.347656 15.875 43.09375 14.941406 39.472656 C 14.789062 38.886719 14.757812 38.269531 14.671875 37.667969 C 14.722656 33.460938 18.09375 29.992188 22.234375 29.925781 C 26.371094 29.859375 30.113281 33.179688 30.246094 37.5 C 30.378906 41.824219 32.449219 44.5625 36.152344 45.8125 C 37.054688 46.113281 38.054688 46.195312 39.007812 46.246094 C 43.980469 46.480469 47.433594 50.9375 46.367188 55.777344 Z M 39.242188 28.855469 C 42.0625 28.921875 44.347656 30.058594 46.066406 32.292969 C 47.300781 33.929688 47.753906 35.816406 47.820312 37.851562 C 47.9375 41.574219 50.972656 44.796875 54.59375 45.128906 C 58.667969 45.511719 62.222656 43.007812 63.074219 39.1875 C 64.160156 34.347656 60.6875 29.890625 55.730469 29.65625 C 54.761719 29.609375 53.761719 29.523438 52.859375 29.222656 C 49.152344 27.972656 47.101562 25.234375 46.96875 20.914062 C 46.835938 16.589844 43.328125 13.269531 38.941406 13.335938 C 34.816406 13.402344 31.445312 16.890625 31.378906 21.078125 C 31.480469 21.679688 31.496094 22.296875 31.648438 22.882812 C 32.582031 26.503906 35.46875 28.757812 39.242188 28.855469 Z M 55.730469 46.246094 C 54.761719 46.195312 53.761719 46.113281 52.859375 45.8125 C 49.152344 44.5625 47.101562 41.824219 46.96875 37.5 C 46.882812 34.75 45.433594 32.394531 43.246094 31.078125 C 42.0625 30.257812 40.609375 29.742188 39.007812 29.65625 C 38.054688 29.609375 37.054688 29.523438 36.152344 29.222656 C 32.449219 27.972656 30.378906 25.234375 30.246094 20.914062 C 30.113281 16.589844 26.371094 13.269531 22.234375 13.335938 C 18.09375 13.402344 14.722656 16.890625 14.671875 21.078125 C 14.757812 21.679688 14.789062 22.296875 14.941406 22.882812 C 15.875 26.503906 18.761719 28.757812 22.535156 28.855469 C 25.355469 28.921875 27.640625 30.058594 29.34375 32.292969 C 30.59375 33.929688 31.046875 35.816406 31.097656 37.851562 C 31.179688 40.457031 32.699219 42.824219 34.851562 44.109375 C 36.085938 44.929688 37.570312 45.394531 39.242188 45.445312 C 42.0625 45.511719 44.347656 46.648438 46.066406 48.882812 C 47.300781 50.519531 47.753906 52.40625 47.820312 54.441406 C 47.9375 58.164062 50.972656 61.382812 54.59375 61.71875 C 58.667969 62.101562 62.222656 59.597656 63.074219 55.777344 C 64.160156 50.9375 60.6875 46.480469 55.730469 46.246094 Z M 55.394531 28.855469 C 55.414062 28.855469 55.414062 28.855469 55.429688 28.855469 C 59.71875 28.804688 63.15625 25.269531 63.105469 20.980469 C 63.074219 16.757812 59.550781 13.320312 55.28125 13.335938 C 51.039062 13.367188 47.550781 16.808594 47.570312 21.097656 C 47.585938 25.386719 51.140625 28.90625 55.394531 28.855469 Z M 22.382812 46.246094 C 18.144531 46.265625 14.65625 49.683594 14.671875 53.992188 C 14.691406 58.296875 18.226562 61.800781 22.5 61.769531 C 26.808594 61.71875 30.261719 58.195312 30.210938 53.890625 C 30.179688 49.652344 26.65625 46.214844 22.382812 46.246094 Z M 22.382812 46.246094 " clip-rule="nonzero"/></clipPath><linearGradient x1="-0.00000223234" gradientTransform="matrix(0.166374, 0, 0, 0.166374, 14.673704, 13.334738)" y1="145.548004" x2="292.010128" gradientUnits="userSpaceOnUse" y2="145.548004" id="a25dd18782"><stop stop-opacity="1" stop-color="rgb(4.699707%, 53.69873%, 29.399109%)" offset="0"/><stop stop-opacity="1" stop-color="rgb(4.698181%, 53.700256%, 29.399109%)" offset="0.03125"/><stop stop-opacity="1" stop-color="rgb(4.501343%, 53.897095%, 29.399109%)" offset="0.0625"/><stop stop-opacity="1" stop-color="rgb(4.302979%, 54.193115%, 29.496765%)" offset="0.078125"/><stop stop-opacity="1" stop-color="rgb(4.299927%, 54.394531%, 29.695129%)" offset="0.09375"/><stop stop-opacity="1" stop-color="rgb(4.299927%, 54.498291%, 29.797363%)" offset="0.125"/><stop stop-opacity="1" stop-color="rgb(4.197693%, 54.600525%, 29.899597%)" offset="0.140625"/><stop stop-opacity="1" stop-color="rgb(3.997803%, 54.800415%, 30.099487%)" offset="0.15625"/><stop stop-opacity="1" stop-color="rgb(3.898621%, 54.899597%, 30.198669%)" offset="0.1875"/><stop stop-opacity="1" stop-color="rgb(3.898621%, 54.997253%, 30.198669%)" offset="0.203125"/><stop stop-opacity="1" stop-color="rgb(3.898621%, 55.195618%, 30.198669%)" offset="0.21875"/><stop stop-opacity="1" stop-color="rgb(3.799438%, 55.397034%, 30.297852%)" offset="0.234375"/><stop stop-opacity="1" stop-color="rgb(3.599548%, 55.59845%, 30.497742%)" offset="0.25"/><stop stop-opacity="1" stop-color="rgb(3.497314%, 55.700684%, 30.599976%)" offset="0.28125"/><stop stop-opacity="1" stop-color="rgb(3.300476%, 55.897522%, 30.599976%)" offset="0.3125"/><stop stop-opacity="1" stop-color="rgb(3.102112%, 56.193542%, 30.696106%)" offset="0.328125"/><stop stop-opacity="1" stop-color="rgb(3.09906%, 56.394958%, 30.89447%)" offset="0.34375"/><stop stop-opacity="1" stop-color="rgb(3.09906%, 56.497192%, 30.99823%)" offset="0.375"/><stop stop-opacity="1" stop-color="rgb(2.998352%, 56.599426%, 30.999756%)" offset="0.390625"/><stop stop-opacity="1" stop-color="rgb(2.798462%, 56.799316%, 31.001282%)" offset="0.40625"/><stop stop-opacity="1" stop-color="rgb(2.69928%, 56.898499%, 31.19812%)" offset="0.4375"/><stop stop-opacity="1" stop-color="rgb(2.69928%, 56.996155%, 31.396484%)" offset="0.453125"/><stop stop-opacity="1" stop-color="rgb(2.69928%, 57.194519%, 31.399536%)" offset="0.46875"/><stop stop-opacity="1" stop-color="rgb(2.548218%, 57.447815%, 31.399536%)" offset="0.5"/><stop stop-opacity="1" stop-color="rgb(2.398682%, 57.598877%, 31.500244%)" offset="0.515625"/><stop stop-opacity="1" stop-color="rgb(2.397156%, 57.600403%, 31.700134%)" offset="0.53125"/><stop stop-opacity="1" stop-color="rgb(2.200317%, 57.797241%, 31.799316%)" offset="0.5625"/><stop stop-opacity="1" stop-color="rgb(2.001953%, 58.093262%, 31.799316%)" offset="0.578125"/><stop stop-opacity="1" stop-color="rgb(1.998901%, 58.294678%, 31.799316%)" offset="0.59375"/><stop stop-opacity="1" stop-color="rgb(1.998901%, 58.396912%, 31.898499%)" offset="0.609375"/><stop stop-opacity="1" stop-color="rgb(1.998901%, 58.399963%, 32.098389%)" offset="0.625"/><stop stop-opacity="1" stop-color="rgb(1.898193%, 58.500671%, 32.199097%)" offset="0.640625"/><stop stop-opacity="1" stop-color="rgb(1.698303%, 58.700562%, 32.199097%)" offset="0.65625"/><stop stop-opacity="1" stop-color="rgb(1.599121%, 58.799744%, 32.199097%)" offset="0.6875"/><stop stop-opacity="1" stop-color="rgb(1.599121%, 58.8974%, 32.272339%)" offset="0.703125"/><stop stop-opacity="1" stop-color="rgb(1.599121%, 59.095764%, 32.420349%)" offset="0.71875"/><stop stop-opacity="1" stop-color="rgb(1.499939%, 59.29718%, 32.498169%)" offset="0.734375"/><stop stop-opacity="1" stop-color="rgb(1.300049%, 59.498596%, 32.499695%)" offset="0.75"/><stop stop-opacity="1" stop-color="rgb(1.197815%, 59.60083%, 32.501221%)" offset="0.78125"/><stop stop-opacity="1" stop-color="rgb(1.000977%, 59.797668%, 32.698059%)" offset="0.8125"/><stop stop-opacity="1" stop-color="rgb(0.802612%, 60.093689%, 32.896423%)" offset="0.828125"/><stop stop-opacity="1" stop-color="rgb(0.799561%, 60.295105%, 32.899475%)" offset="0.84375"/><stop stop-opacity="1" stop-color="rgb(0.799561%, 60.397339%, 32.899475%)" offset="0.875"/><stop stop-opacity="1" stop-color="rgb(0.698853%, 60.499573%, 33.000183%)" offset="0.890625"/><stop stop-opacity="1" stop-color="rgb(0.498962%, 60.699463%, 33.200073%)" offset="0.90625"/><stop stop-opacity="1" stop-color="rgb(0.39978%, 60.798645%, 33.299255%)" offset="0.9375"/><stop stop-opacity="1" stop-color="rgb(0.39978%, 60.896301%, 33.299255%)" offset="0.953125"/><stop stop-opacity="1" stop-color="rgb(0.39978%, 61.094666%, 33.299255%)" offset="0.96875"/><stop stop-opacity="1" stop-color="rgb(0.300598%, 61.296082%, 33.398438%)" offset="0.984375"/><stop stop-opacity="1" stop-color="rgb(0.100708%, 61.499023%, 33.598328%)" offset="1"/></linearGradient></defs><g fill="#ffffff" fill-opacity="1"><g transform="translate(75.186995, 51.648721)"><g><path d="M 24.21875 -26.363281 L 10.460938 -26.363281 C 9.054688 -26.363281 7.839844 -26.171875 6.847656 -25.820312 C 5.855469 -25.4375 4.992188 -24.828125 4.382812 -24.027344 C 3.742188 -23.195312 3.261719 -22.171875 2.976562 -20.894531 C 2.6875 -19.644531 2.558594 -18.109375 2.558594 -16.347656 L 2.558594 -10.015625 C 2.558594 -8.222656 2.6875 -6.6875 2.976562 -5.40625 C 3.261719 -4.160156 3.742188 -3.101562 4.382812 -2.273438 C 5.023438 -1.472656 5.855469 -0.863281 6.847656 -0.511719 C 7.839844 -0.160156 9.054688 0.03125 10.460938 0.03125 L 21.40625 0.03125 C 22.589844 0.03125 23.515625 -0.449219 24.15625 -1.375 C 24.765625 -2.273438 25.085938 -3.777344 25.085938 -5.917969 L 25.085938 -14.492188 C 25.085938 -15.710938 24.378906 -15.902344 23.964844 -15.902344 L 12.636719 -15.902344 C 12.382812 -15.902344 11.742188 -15.773438 11.742188 -14.75 L 11.742188 -12.316406 C 11.742188 -11.261719 12.382812 -11.167969 12.636719 -11.167969 L 20.605469 -11.167969 C 20.605469 -11.167969 20.636719 -6.6875 20.636719 -6.6875 C 20.636719 -5.695312 20.476562 -5.277344 20.347656 -5.085938 C 20.1875 -4.832031 19.933594 -4.734375 19.582031 -4.734375 L 10.621094 -4.734375 C 9.949219 -4.734375 9.375 -4.800781 8.957031 -4.960938 C 8.542969 -5.085938 8.253906 -5.3125 8 -5.664062 C 7.773438 -5.984375 7.582031 -6.464844 7.488281 -7.070312 C 7.359375 -7.710938 7.292969 -8.511719 7.292969 -9.46875 L 7.292969 -16.894531 C 7.292969 -17.851562 7.359375 -18.652344 7.488281 -19.292969 C 7.582031 -19.867188 7.773438 -20.347656 8 -20.699219 C 8.253906 -21.019531 8.542969 -21.246094 8.957031 -21.40625 C 9.375 -21.53125 9.949219 -21.628906 10.621094 -21.628906 L 24.21875 -21.628906 C 24.476562 -21.628906 25.117188 -21.722656 25.117188 -22.75 L 25.117188 -25.242188 C 25.117188 -26.234375 24.476562 -26.363281 24.21875 -26.363281 Z M 24.21875 -26.363281 "/></g></g></g><g fill="#ffffff" fill-opacity="1"><g transform="translate(104.459801, 51.648721)"><g><path d="M 24.378906 -18.71875 C 24.378906 -18.683594 24.378906 -18.652344 24.378906 -18.621094 C 24.378906 -18.589844 24.378906 -18.558594 24.378906 -18.523438 Z M 24.988281 -1.375 L 19.390625 -10.972656 C 20.957031 -11.167969 22.171875 -11.839844 22.972656 -12.925781 C 23.867188 -14.238281 24.347656 -16.125 24.378906 -18.621094 C 24.347656 -21.117188 23.867188 -23.003906 22.972656 -24.316406 C 22.011719 -25.691406 20.414062 -26.363281 18.238281 -26.363281 L 3.488281 -26.363281 C 3.199219 -26.363281 2.558594 -26.269531 2.558594 -25.242188 L 2.558594 -22.714844 C 2.558594 -21.722656 3.199219 -21.628906 3.488281 -21.628906 L 17.40625 -21.628906 C 18.238281 -21.628906 18.78125 -21.40625 19.101562 -20.925781 C 19.453125 -20.445312 19.613281 -19.675781 19.613281 -18.621094 C 19.613281 -17.566406 19.453125 -16.796875 19.101562 -16.316406 C 18.78125 -15.835938 18.238281 -15.613281 17.40625 -15.613281 L 3.488281 -15.613281 C 3.199219 -15.613281 2.558594 -15.515625 2.558594 -14.527344 L 2.558594 -1.085938 C 2.558594 -0.0976562 3.199219 0.03125 3.488281 0.03125 L 6.398438 0.03125 C 6.6875 0.03125 7.292969 -0.0976562 7.292969 -1.085938 L 7.292969 -10.878906 L 14.046875 -10.878906 L 19.835938 -0.609375 C 19.964844 -0.414062 20.0625 -0.257812 20.1875 -0.160156 C 20.347656 -0.03125 20.574219 0.03125 20.859375 0.03125 L 24.378906 0.03125 C 24.765625 0.03125 25.050781 -0.222656 25.117188 -0.609375 C 25.148438 -0.929688 25.117188 -1.183594 24.988281 -1.375 Z M 24.988281 -1.375 "/></g></g></g><g fill="#ffffff" fill-opacity="1"><g transform="translate(133.764593, 51.648721)"><g><path d="M 24.347656 -24.027344 C 23.707031 -24.828125 22.875 -25.4375 21.851562 -25.820312 C 20.859375 -26.171875 19.644531 -26.363281 18.238281 -26.363281 L 10.429688 -26.363281 C 9.023438 -26.363281 7.839844 -26.171875 6.847656 -25.820312 C 5.824219 -25.4375 4.992188 -24.828125 4.351562 -24.027344 C 3.742188 -23.226562 3.261719 -22.171875 2.976562 -20.894531 C 2.6875 -19.644531 2.558594 -18.140625 2.558594 -16.347656 L 2.558594 -10.015625 C 2.558594 -8.222656 2.6875 -6.6875 2.976562 -5.4375 C 3.261719 -4.160156 3.742188 -3.101562 4.351562 -2.304688 C 4.992188 -1.472656 5.824219 -0.863281 6.847656 -0.511719 C 7.808594 -0.160156 9.023438 0.03125 10.429688 0.03125 L 18.238281 0.03125 C 19.644531 0.03125 20.859375 -0.160156 21.851562 -0.511719 C 22.875 -0.863281 23.707031 -1.472656 24.347656 -2.273438 C 24.988281 -3.101562 25.4375 -4.160156 25.722656 -5.4375 C 25.980469 -6.6875 26.140625 -8.222656 26.140625 -10.015625 L 26.140625 -16.347656 C 26.140625 -18.109375 25.980469 -19.644531 25.722656 -20.894531 C 25.4375 -22.171875 24.988281 -23.226562 24.347656 -24.027344 Z M 21.371094 -16.894531 L 21.371094 -9.4375 C 21.371094 -8.511719 21.339844 -7.710938 21.210938 -7.070312 C 21.117188 -6.496094 20.925781 -5.984375 20.667969 -5.664062 C 20.445312 -5.3125 20.125 -5.085938 19.707031 -4.960938 C 19.292969 -4.800781 18.75 -4.734375 18.078125 -4.734375 L 10.589844 -4.734375 C 9.917969 -4.734375 9.375 -4.800781 8.957031 -4.960938 C 8.542969 -5.085938 8.222656 -5.3125 8 -5.664062 C 7.742188 -5.984375 7.582031 -6.496094 7.453125 -7.070312 C 7.359375 -7.710938 7.292969 -8.511719 7.292969 -9.4375 L 7.292969 -16.894531 C 7.292969 -17.820312 7.359375 -18.621094 7.453125 -19.261719 C 7.582031 -19.867188 7.742188 -20.347656 8 -20.699219 C 8.222656 -21.019531 8.542969 -21.246094 8.957031 -21.40625 C 9.375 -21.53125 9.917969 -21.628906 10.589844 -21.628906 L 18.078125 -21.628906 C 18.75 -21.628906 19.292969 -21.53125 19.707031 -21.40625 C 20.125 -21.246094 20.445312 -21.019531 20.667969 -20.699219 C 20.925781 -20.347656 21.117188 -19.867188 21.210938 -19.261719 C 21.339844 -18.621094 21.371094 -17.820312 21.371094 -16.894531 Z M 21.371094 -16.894531 "/></g></g></g><g fill="#ffffff" fill-opacity="1"><g transform="translate(164.061141, 51.648721)"><g><path d="M 41.210938 -26.746094 L 37.691406 -26.746094 C 37.273438 -26.746094 36.953125 -26.492188 36.761719 -26.042969 L 30.714844 -6.847656 C 30.683594 -6.78125 30.683594 -6.78125 30.683594 -6.78125 L 30.554688 -6.75 C 30.554688 -6.75 30.523438 -6.78125 30.523438 -6.816406 L 24.925781 -26.042969 C 24.765625 -26.492188 24.445312 -26.746094 24.027344 -26.746094 L 20.414062 -26.746094 C 19.996094 -26.746094 19.675781 -26.492188 19.484375 -26.042969 L 13.4375 -6.847656 C 13.40625 -6.78125 13.40625 -6.78125 13.40625 -6.78125 L 13.277344 -6.75 C 13.277344 -6.75 13.246094 -6.78125 13.246094 -6.816406 L 7.648438 -26.042969 C 7.488281 -26.492188 7.167969 -26.746094 6.71875 -26.746094 L 3.296875 -26.746094 C 2.785156 -26.746094 2.65625 -26.429688 2.625 -26.269531 C 2.558594 -26.042969 2.558594 -25.789062 2.6875 -25.5 L 9.308594 -3.328125 C 9.375 -3.167969 9.46875 -2.976562 9.535156 -2.847656 C 10.015625 -1.183594 11.582031 0 13.34375 0 C 14.140625 0 14.910156 -0.222656 15.550781 -0.671875 C 15.742188 -0.769531 15.871094 -0.894531 16.03125 -0.992188 C 16.476562 -1.40625 16.957031 -2.175781 17.4375 -3.359375 L 22.171875 -18.078125 L 26.585938 -3.328125 C 26.652344 -3.167969 26.746094 -2.976562 26.8125 -2.847656 C 27.292969 -1.183594 28.859375 0 30.621094 0 C 31.417969 0 32.1875 -0.222656 32.828125 -0.671875 C 33.019531 -0.769531 33.179688 -0.894531 33.308594 -0.992188 C 33.785156 -1.40625 34.234375 -2.175781 34.714844 -3.359375 L 41.847656 -25.5 C 41.945312 -25.789062 41.976562 -26.042969 41.914062 -26.269531 C 41.882812 -26.460938 41.722656 -26.746094 41.210938 -26.746094 Z M 41.210938 -26.746094 "/></g></g></g><g fill="#ffffff" fill-opacity="1"><g transform="translate(210.193805, 51.648721)"><g><path d="M 18.011719 -15.742188 L 8.414062 -15.742188 C 7.933594 -15.742188 7.328125 -15.933594 7.328125 -17.5 L 7.328125 -19.867188 C 7.328125 -20.445312 7.421875 -20.894531 7.582031 -21.210938 C 7.710938 -21.40625 7.902344 -21.628906 8.445312 -21.628906 L 21.46875 -21.628906 C 21.722656 -21.628906 22.363281 -21.722656 22.363281 -22.714844 L 22.363281 -25.277344 C 22.363281 -26.269531 21.722656 -26.363281 21.46875 -26.363281 L 7.679688 -26.363281 C 5.917969 -26.363281 4.640625 -25.789062 3.808594 -24.605469 C 2.976562 -23.453125 2.558594 -21.917969 2.558594 -20.0625 L 2.558594 -17.628906 C 2.558594 -15.421875 3.007812 -13.628906 3.808594 -12.511719 C 4.800781 -11.199219 6.269531 -11.007812 7.613281 -11.007812 L 17.214844 -11.007812 C 17.691406 -11.007812 18.332031 -10.8125 18.332031 -9.246094 L 18.332031 -6.496094 C 18.332031 -5.917969 18.238281 -5.472656 18.046875 -5.152344 C 17.917969 -4.960938 17.726562 -4.734375 17.179688 -4.734375 L 3.519531 -4.734375 C 3.230469 -4.734375 2.589844 -4.640625 2.589844 -3.648438 L 2.589844 -1.085938 C 2.589844 -0.0976562 3.230469 0 3.519531 0 L 17.949219 0 C 19.707031 0 21.019531 -0.609375 21.851562 -1.792969 C 22.652344 -2.945312 23.070312 -4.449219 23.070312 -6.304688 L 23.070312 -9.117188 C 23.070312 -11.199219 22.652344 -12.828125 21.820312 -13.980469 C 20.957031 -15.132812 19.675781 -15.742188 18.011719 -15.742188 Z M 18.011719 -15.742188 "/></g></g></g><g fill="#ffffff" fill-opacity="1"><g transform="translate(237.419114, 51.648721)"><g><path d="M 24.347656 -24.027344 C 23.707031 -24.828125 22.875 -25.4375 21.851562 -25.820312 C 20.859375 -26.171875 19.644531 -26.363281 18.238281 -26.363281 L 10.429688 -26.363281 C 9.023438 -26.363281 7.839844 -26.171875 6.847656 -25.820312 C 5.824219 -25.4375 4.992188 -24.828125 4.351562 -24.027344 C 3.742188 -23.226562 3.261719 -22.171875 2.976562 -20.894531 C 2.6875 -19.644531 2.558594 -18.140625 2.558594 -16.347656 L 2.558594 -10.015625 C 2.558594 -8.222656 2.6875 -6.6875 2.976562 -5.4375 C 3.261719 -4.160156 3.742188 -3.101562 4.351562 -2.304688 C 4.992188 -1.472656 5.824219 -0.863281 6.847656 -0.511719 C 7.808594 -0.160156 9.023438 0.03125 10.429688 0.03125 L 18.238281 0.03125 C 19.644531 0.03125 20.859375 -0.160156 21.851562 -0.511719 C 22.875 -0.863281 23.707031 -1.472656 24.347656 -2.273438 C 24.988281 -3.101562 25.4375 -4.160156 25.722656 -5.4375 C 25.980469 -6.6875 26.140625 -8.222656 26.140625 -10.015625 L 26.140625 -16.347656 C 26.140625 -18.109375 25.980469 -19.644531 25.722656 -20.894531 C 25.4375 -22.171875 24.988281 -23.226562 24.347656 -24.027344 Z M 21.371094 -16.894531 L 21.371094 -9.4375 C 21.371094 -8.511719 21.339844 -7.710938 21.210938 -7.070312 C 21.117188 -6.496094 20.925781 -5.984375 20.667969 -5.664062 C 20.445312 -5.3125 20.125 -5.085938 19.707031 -4.960938 C 19.292969 -4.800781 18.75 -4.734375 18.078125 -4.734375 L 10.589844 -4.734375 C 9.917969 -4.734375 9.375 -4.800781 8.957031 -4.960938 C 8.542969 -5.085938 8.222656 -5.3125 8 -5.664062 C 7.742188 -5.984375 7.582031 -6.496094 7.453125 -7.070312 C 7.359375 -7.710938 7.292969 -8.511719 7.292969 -9.4375 L 7.292969 -16.894531 C 7.292969 -17.820312 7.359375 -18.621094 7.453125 -19.261719 C 7.582031 -19.867188 7.742188 -20.347656 8 -20.699219 C 8.222656 -21.019531 8.542969 -21.246094 8.957031 -21.40625 C 9.375 -21.53125 9.917969 -21.628906 10.589844 -21.628906 L 18.078125 -21.628906 C 18.75 -21.628906 19.292969 -21.53125 19.707031 -21.40625 C 20.125 -21.246094 20.445312 -21.019531 20.667969 -20.699219 C 20.925781 -20.347656 21.117188 -19.867188 21.210938 -19.261719 C 21.339844 -18.621094 21.371094 -17.820312 21.371094 -16.894531 Z M 21.371094 -16.894531 "/></g></g></g><g fill="#ffffff" fill-opacity="1"><g transform="translate(267.715651, 51.648721)"><g><path d="M 22.109375 -26.363281 L 10.460938 -26.363281 C 9.054688 -26.363281 7.839844 -26.171875 6.847656 -25.820312 C 5.824219 -25.4375 4.992188 -24.828125 4.382812 -24.027344 C 3.742188 -23.226562 3.261719 -22.171875 2.976562 -20.894531 C 2.6875 -19.644531 2.558594 -18.109375 2.558594 -16.347656 L 2.558594 -10.015625 C 2.558594 -8.222656 2.6875 -6.6875 2.976562 -5.40625 C 3.261719 -4.160156 3.742188 -3.101562 4.382812 -2.273438 C 5.023438 -1.472656 5.855469 -0.863281 6.847656 -0.511719 C 7.839844 -0.160156 9.054688 0.03125 10.460938 0.03125 L 22.109375 0.03125 C 22.363281 0.03125 23.003906 -0.0976562 23.003906 -1.085938 L 23.003906 -3.617188 C 23.003906 -4.605469 22.363281 -4.734375 22.109375 -4.734375 L 10.621094 -4.734375 C 9.949219 -4.734375 9.375 -4.800781 8.957031 -4.960938 C 8.542969 -5.085938 8.253906 -5.3125 8 -5.664062 C 7.742188 -5.984375 7.582031 -6.464844 7.453125 -7.070312 C 7.359375 -7.710938 7.292969 -8.511719 7.292969 -9.46875 L 7.292969 -16.925781 C 7.292969 -17.886719 7.359375 -18.683594 7.453125 -19.292969 C 7.582031 -19.902344 7.742188 -20.347656 8 -20.699219 C 8.253906 -21.050781 8.542969 -21.277344 8.957031 -21.40625 C 9.375 -21.566406 9.949219 -21.628906 10.621094 -21.628906 L 22.109375 -21.628906 C 22.363281 -21.628906 23.003906 -21.757812 23.003906 -22.78125 L 23.003906 -25.242188 C 23.003906 -26.234375 22.363281 -26.363281 22.109375 -26.363281 Z M 22.109375 -26.363281 "/></g></g></g><g clip-path="url(#250f00f846)"><g clip-path="url(#d7fdca8063)"><path fill="url(#a25dd18782)" d="M 14.671875 13.335938 L 14.671875 61.75 L 63.257812 61.75 L 63.257812 13.335938 Z M 14.671875 13.335938 " fill-rule="nonzero"/></g></g></svg>